<svg xmlns="http://www.w3.org/2000/svg" viewBox="0 0 120 120" fill="none"><g fill="#B88753" stroke="none"><path d="M76.5,33.42 Q76.73,30.32 74.45,28.21 Q74.22,31.31 76.5,33.42 Z"/><path d="M82.72,38.06 Q83.65,35.02 81.91,32.36 Q80.98,35.4 82.72,38.06 Z"/><path d="M87.68,44.03 Q89.3,41.21 88.24,38.13 Q86.61,40.95 87.68,44.03 Z"/><path d="M91.11,50.98 Q93.37,48.55 93.08,45.23 Q90.82,47.67 91.11,50.98 Z"/><path d="M92.82,58.55 Q95.63,56.64 96.17,53.29 Q93.36,55.19 92.82,58.55 Z"/><path d="M92.72,66.31 Q95.96,65.05 97.32,61.86 Q94.08,63.11 92.72,66.31 Z"/><path d="M90.81,73.83 Q94.18,73.4 96.18,70.66 Q92.81,71.08 90.81,73.83 Z"/><path d="M87.2,80.69 Q90.5,81.09 93.01,78.91 Q89.71,78.51 87.2,80.69 Z"/><path d="M82.08,86.52 Q85.12,87.69 87.99,86.16 Q84.95,84.99 82.08,86.52 Z"/><path d="M75.75,91 Q78.35,92.83 81.42,92 Q78.82,90.17 75.75,91 Z"/><path d="M68.54,93.88 Q70.57,96.23 73.68,96.11 Q71.65,93.75 68.54,93.88 Z"/><path d="M43.5,33.42 Q45.78,31.31 45.55,28.21 Q43.27,30.32 43.5,33.42 Z"/><path d="M37.28,38.06 Q39.02,35.4 38.09,32.36 Q36.35,35.02 37.28,38.06 Z"/><path d="M32.32,44.03 Q33.39,40.95 31.76,38.13 Q30.7,41.21 32.32,44.03 Z"/><path d="M28.89,50.98 Q29.18,47.67 26.92,45.23 Q26.63,48.55 28.89,50.98 Z"/><path d="M27.18,58.55 Q26.64,55.19 23.83,53.29 Q24.37,56.64 27.18,58.55 Z"/><path d="M27.28,66.31 Q25.92,63.11 22.68,61.86 Q24.04,65.05 27.28,66.31 Z"/><path d="M29.19,73.83 Q27.19,71.08 23.82,70.66 Q25.82,73.4 29.19,73.83 Z"/><path d="M32.8,80.69 Q30.29,78.51 26.99,78.91 Q29.5,81.09 32.8,80.69 Z"/><path d="M37.92,86.52 Q35.05,84.99 32.01,86.16 Q34.88,87.69 37.92,86.52 Z"/><path d="M44.25,91 Q41.18,90.17 38.58,92 Q41.65,92.83 44.25,91 Z"/><path d="M51.46,93.88 Q48.35,93.75 46.32,96.11 Q49.43,96.23 51.46,93.88 Z"/></g><g fill="none" stroke="#A9743B" stroke-width="1.6" stroke-linecap="round"><path d="M76.5,33.42 A33,33 0 0 1 68.54,93.88"/><path d="M43.5,33.42 A33,33 0 0 0 51.46,93.88"/></g><g fill="#C89B5E" stroke="none"><path d="M51,33 L51,26.5 L53.25,30 L55.5,25 L57.75,30 L60,23.3 L62.25,30 L64.5,25 L66.75,30 L69,26.5 L69,33 Z"/><rect x="49" y="32.6" width="22" height="3" rx="1.2"/><circle cx="51" cy="26.5" r="1.15"/><circle cx="55.5" cy="25" r="1.15"/><circle cx="60" cy="23.3" r="1.15"/><circle cx="64.5" cy="25" r="1.15"/><circle cx="69" cy="26.5" r="1.15"/></g><text x="60" y="77.5" text-anchor="middle" font-family="'Cormorant Garamond',Georgia,serif" font-size="50" font-weight="600" fill="#A9743B">G</text></svg>