<svg xmlns="http://www.w3.org/2000/svg" viewBox="0 0 48 48" fill="none" stroke="currentColor" stroke-width="1.4" stroke-linecap="round" stroke-linejoin="round"><path d="M20.8,13.5 C19.6,16.5 18.9,19 19.3,22 C19.7,25.5 16.9,27.5 16.7,30 C16.5,33.5 18.8,36.5 21.2,38.5"/><path d="M27.2,13.5 C28.4,16.5 29.1,19 28.7,22 C28.3,25.5 31.1,27.5 31.3,30 C31.5,33.5 29.2,36.5 26.8,38.5"/><path d="M18.6,30 Q24,31.6 29.4,30"/><path d="M18.6,30 Q21,33.6 24,36.1"/><path d="M29.4,30 Q27,33.6 24,36.1"/><circle cx="24" cy="24.2" r="0.5"/></svg>