<svg xmlns="http://www.w3.org/2000/svg" viewBox="0 0 48 48" fill="none" stroke="currentColor" stroke-width="1.4" stroke-linecap="round" stroke-linejoin="round"><ellipse cx="24" cy="17.8" rx="4.2" ry="2.7"/><path d="M18.2,20.4 C18.6,24.6 20.3,28.2 24,30.6 C27.7,28.2 29.4,24.6 29.8,20.4 C27,22.3 21,22.3 18.2,20.4 Z"/><path d="M18.2,20.6 C15.8,16.4 11.6,15.8 9.8,18.6 C8.3,20.9 9.6,23.8 12.2,24.8"/><ellipse cx="13.7" cy="26.4" rx="2.7" ry="1.9" transform="rotate(-35 13.7 26.4)"/><path d="M29.8,20.6 C32.2,16.4 36.4,15.8 38.2,18.6 C39.7,20.9 38.4,23.8 35.8,24.8"/><ellipse cx="34.3" cy="26.4" rx="2.7" ry="1.9" transform="rotate(35 34.3 26.4)"/><path d="M22.4,30.8 C22.2,32.9 22.2,34.5 22.7,35.7 C23.3,36.9 24.7,36.9 25.3,35.7 C25.8,34.5 25.8,32.9 25.6,30.8"/></svg>