<svg xmlns="http://www.w3.org/2000/svg" viewBox="0 0 48 48" fill="none" stroke="currentColor" stroke-width="1.4" stroke-linecap="round" stroke-linejoin="round"><path d="M13.3,24.82 L 18.7,24.82 L 21.4,29.5 L 18.7,34.18 L 13.3,34.18 L 10.6,29.5 Z"/><path d="M21.4,20.15 L 26.8,20.15 L 29.5,24.82 L 26.8,29.5 L 21.4,29.5 L 18.7,24.82 Z"/><path d="M29.5,15.47 L 34.9,15.47 L 37.6,20.15 L 34.9,24.82 L 29.5,24.82 L 26.8,20.15 Z"/><path d="M13.3,34.18 L13.3,37.18"/><path d="M18.7,34.18 L18.7,37.18"/><path d="M10.6,29.5 L8.1,31.2"/><path d="M34.9,15.47 L34.9,12.27"/><path d="M34.9,12.27 L33.3,10.87"/><path d="M34.9,12.27 L36.5,10.87"/></svg>